<svg xmlns="http://www.w3.org/2000/svg" width="200" height="200" viewBox="0 0 200 200" fill="none">
  <rect width="200" height="200" fill="#F5F4F0"/>
  <rect x="20" y="20" width="160" height="160" fill="#FFFFFF" stroke="#E8E6E1" stroke-width="2"/>
  <!-- QR pattern placeholder -->
  <rect x="30" y="30" width="50" height="50" fill="#1A1A18"/>
  <rect x="40" y="40" width="30" height="30" fill="#FFFFFF"/>
  <rect x="47" y="47" width="16" height="16" fill="#1A1A18"/>
  <rect x="120" y="30" width="50" height="50" fill="#1A1A18"/>
  <rect x="130" y="40" width="30" height="30" fill="#FFFFFF"/>
  <rect x="137" y="47" width="16" height="16" fill="#1A1A18"/>
  <rect x="30" y="120" width="50" height="50" fill="#1A1A18"/>
  <rect x="40" y="130" width="30" height="30" fill="#FFFFFF"/>
  <rect x="47" y="137" width="16" height="16" fill="#1A1A18"/>
  <rect x="90" y="30" width="10" height="10" fill="#1A1A18"/>
  <rect x="100" y="40" width="10" height="10" fill="#1A1A18"/>
  <rect x="90" y="50" width="10" height="10" fill="#1A1A18"/>
  <rect x="90" y="90" width="10" height="10" fill="#1A1A18"/>
  <rect x="100" y="100" width="10" height="10" fill="#1A1A18"/>
  <rect x="110" y="90" width="10" height="10" fill="#1A1A18"/>
  <rect x="90" y="110" width="10" height="10" fill="#1A1A18"/>
  <rect x="120" y="90" width="10" height="10" fill="#1A1A18"/>
  <rect x="140" y="100" width="10" height="10" fill="#1A1A18"/>
  <rect x="160" y="90" width="10" height="10" fill="#1A1A18"/>
  <rect x="150" y="120" width="10" height="10" fill="#1A1A18"/>
  <rect x="170" y="130" width="10" height="10" fill="#1A1A18"/>
  <rect x="120" y="150" width="10" height="10" fill="#1A1A18"/>
  <rect x="140" y="160" width="10" height="10" fill="#1A1A18"/>
  <rect x="160" y="150" width="10" height="10" fill="#1A1A18"/>
  <text x="100" y="195" text-anchor="middle" font-family="system-ui, sans-serif" font-size="8" fill="#9B9B97">GCash QR Placeholder</text>
</svg>
